{
    "asset" : {
        "generator" : "Khronos glTF Blender I/O v1.3.48",
        "version" : "2.0"
    },
    "scene" : 0,
    "scenes" : [
        {
            "name" : "Scene",
            "nodes" : [
                6
            ]
        }
    ],
    "nodes" : [
        {
            "name" : "attach_bottom_fuselage",
            "translation" : [
                0,
                0,
                -2.5
            ]
        },
        {
            "name" : "attach_top_fuselage",
            "translation" : [
                0,
                0,
                2.5
            ]
        },
        {
            "extras" : {
                "shape" : "cylinder"
            },
            "name" : "col_tank",
            "scale" : [
                1,
                1,
                2.4968342781066895
            ]
        },
        {
            "mesh" : 0,
            "name" : "fuselage"
        },
        {
            "extras" : {
                "machines" : [
                    {
                        "type" : "Container",
                        "storagetype" : "liquid",
                        "capacity" : 9.927
                    }
                ]
            },
            "name" : "tank_lox",
            "scale" : [
                1,
                1,
                1.5812300443649292
            ],
            "translation" : [
                0,
                0,
                -0.8666941523551941
            ]
        },
        {
            "extras" : {
                "machines" : [
                    {
                        "type" : "Container",
                        "storagetype" : "liquid",
                        "capacity" : 5.45
                    }
                ]
            },
            "name" : "tank_rp1",
            "scale" : [
                1,
                1,
                0.8682799935340881
            ],
            "translation" : [
                0,
                0,
                1.602536678314209
            ]
        },
        {
            "children" : [
                0,
                1,
                2,
                3,
                4,
                5
            ],
            "extras" : {
                "country" : "Placeholderland",
                "description" : "A placeholder fuel tank",
                "manufacturer" : "ACME Placeholders",
                "machines" : [
                    {
                        "type" : "FreeEnergyGenerator"
                    }
                ],
                "name" : "Generic Tank 001b44a",
                "massdry" : 200
            },
            "name" : "part_phFuselage"
        }
    ],
    "materials" : [
        {
            "doubleSided" : true,
            "emissiveFactor" : [
                0,
                0,
                0
            ],
            "name" : "Material",
            "pbrMetallicRoughness" : {
                "baseColorTexture" : {
                    "index" : 0,
                    "texCoord" : 0
                },
                "metallicFactor" : 0,
                "roughnessFactor" : 0.4000000059604645
            }
        }
    ],
    "meshes" : [
        {
            "name" : "Cylinder",
            "primitives" : [
                {
                    "attributes" : {
                        "POSITION" : 0,
                        "NORMAL" : 1,
                        "TEXCOORD_0" : 2
                    },
                    "indices" : 3,
                    "material" : 0
                }
            ]
        }
    ],
    "textures" : [
        {
            "source" : 0
        }
    ],
    "images" : [
        {
            "mimeType" : "image/png",
            "name" : "ph_base",
            "uri" : "ph_base.png"
        }
    ],
    "accessors" : [
        {
            "bufferView" : 0,
            "componentType" : 5126,
            "count" : 144,
            "max" : [
                1,
                1,
                2.5
            ],
            "min" : [
                -1,
                -1,
                -2.5
            ],
            "type" : "VEC3"
        },
        {
            "bufferView" : 1,
            "componentType" : 5126,
            "count" : 144,
            "type" : "VEC3"
        },
        {
            "bufferView" : 2,
            "componentType" : 5126,
            "count" : 144,
            "type" : "VEC2"
        },
        {
            "bufferView" : 3,
            "componentType" : 5123,
            "count" : 420,
            "type" : "SCALAR"
        }
    ],
    "bufferViews" : [
        {
            "buffer" : 0,
            "byteLength" : 1728,
            "byteOffset" : 0
        },
        {
            "buffer" : 0,
            "byteLength" : 1728,
            "byteOffset" : 1728
        },
        {
            "buffer" : 0,
            "byteLength" : 1152,
            "byteOffset" : 3456
        },
        {
            "buffer" : 0,
            "byteLength" : 840,
            "byteOffset" : 4608
        }
    ],
    "buffers" : [
        {
            "byteLength" : 5448,
            "uri" : "ph_fuselage.sturdy.bin"
        }
    ]
}
