{
    "asset" : {
        "generator" : "Khronos glTF Blender I/O v1.3.48",
        "version" : "2.0"
    },
    "scene" : 0,
    "scenes" : [
        {
            "name" : "Scene",
            "nodes" : [
                1
            ]
        }
    ],
    "nodes" : [
        {
            "mesh" : 0,
            "name" : "plume"
        },
        {
            "children" : [
                0
            ],
            "extras" : {
                "flowvelocity" : 7,
                "color" : [
                    1,
                    1,
                    1,
                    1
                ],
                "zMax" : 1.25,
                "zMin" : -3.48
            },
            "name" : "plume_phPlume"
        }
    ],
    "meshes" : [
        {
            "name" : "Cylinder.003",
            "primitives" : [
                {
                    "attributes" : {
                        "POSITION" : 0,
                        "NORMAL" : 1,
                        "TEXCOORD_0" : 2
                    },
                    "indices" : 3
                }
            ]
        }
    ],
    "accessors" : [
        {
            "bufferView" : 0,
            "componentType" : 5126,
            "count" : 324,
            "max" : [
                5.216934680938721,
                5.216935157775879,
                1.2471615076065063
            ],
            "min" : [
                -5.216934680938721,
                -5.2169342041015625,
                -3.477656364440918
            ],
            "type" : "VEC3"
        },
        {
            "bufferView" : 1,
            "componentType" : 5126,
            "count" : 324,
            "type" : "VEC3"
        },
        {
            "bufferView" : 2,
            "componentType" : 5126,
            "count" : 324,
            "type" : "VEC2"
        },
        {
            "bufferView" : 3,
            "componentType" : 5123,
            "count" : 534,
            "type" : "SCALAR"
        }
    ],
    "bufferViews" : [
        {
            "buffer" : 0,
            "byteLength" : 3888,
            "byteOffset" : 0
        },
        {
            "buffer" : 0,
            "byteLength" : 3888,
            "byteOffset" : 3888
        },
        {
            "buffer" : 0,
            "byteLength" : 2592,
            "byteOffset" : 7776
        },
        {
            "buffer" : 0,
            "byteLength" : 1068,
            "byteOffset" : 10368
        }
    ],
    "buffers" : [
        {
            "byteLength" : 11436,
            "uri" : "ph_plume.sturdy.bin"
        }
    ]
}
