{
    "asset" : {
        "generator" : "Khronos glTF Blender I/O v1.3.48",
        "version" : "2.0"
    },
    "scene" : 0,
    "scenes" : [
        {
            "name" : "Scene",
            "nodes" : [
                3
            ]
        }
    ],
    "nodes" : [
        {
            "extras" : {
                "shape" : "cube"
            },
            "name" : "col_RCSblk",
            "scale" : [
                0.10183212906122208,
                0.10183212906122208,
                0.10183212906122208
            ],
            "translation" : [
                0,
                0,
                -0.03353360667824745
            ]
        },
        {
            "name" : "fx_plume_phRCSplume",
            "translation" : [
                0,
                0,
                -0.1351655125617981
            ]
        },
        {
            "mesh" : 0,
            "name" : "linrcsblk",
            "rotation" : [
                -0.7071068286895752,
                0,
                -0.7071067690849304,
                -3.090862321641907e-08
            ]
        },
        {
            "children" : [
                0,
                1,
                2
            ],
            "extras" : {
                "country" : "Placeholderland",
                "description" : "A placeholder linear RCS block",
                "manufacturer" : "ACME Placeholders",
                "machines" : [
                	{
                		"type" : "RCSController"
                	},
                    {
                        "type" : "Rocket",
                        "thrust" : 7000.0,
                        "Isp" : 225.0,
                        "fueltype" : "lzdb:fuel"
                    },
                    {
                        "type" : "FreeEnergyGenerator"
                    }
                ],
                "massdry" : 5.0,
                "name" : "Mk. 0 Placeholder RCS Thruster"
            },
            "name" : "part_phLinRCS"
        }
    ],
    "materials" : [
        {
            "doubleSided" : true,
            "emissiveFactor" : [
                0,
                0,
                0
            ],
            "name" : "Material",
            "pbrMetallicRoughness" : {
                "baseColorTexture" : {
                    "index" : 0,
                    "texCoord" : 0
                },
                "metallicRoughnessTexture" : {
                    "index" : 1,
                    "texCoord" : 0
                }
            }
        }
    ],
    "meshes" : [
        {
            "name" : "Cube",
            "primitives" : [
                {
                    "attributes" : {
                        "POSITION" : 0,
                        "NORMAL" : 1,
                        "TEXCOORD_0" : 2
                    },
                    "indices" : 3,
                    "material" : 0
                }
            ]
        }
    ],
    "textures" : [
        {
            "source" : 0
        },
        {
            "source" : 1
        }
    ],
    "images" : [
        {
            "mimeType" : "image/png",
            "name" : "ph_base",
            "uri" : "ph_base.png"
        },
        {
            "mimeType" : "image/png",
            "name" : "ph_metal-ph_rough",
            "uri" : "ph_metal-ph_rough.png"
        }
    ],
    "accessors" : [
        {
            "bufferView" : 0,
            "componentType" : 5126,
            "count" : 144,
            "max" : [
                0.05941193550825119,
                0.10176695883274078,
                0.10176695883274078
            ],
            "min" : [
                -0.13516558706760406,
                -0.10176695883274078,
                -0.10176695883274078
            ],
            "type" : "VEC3"
        },
        {
            "bufferView" : 1,
            "componentType" : 5126,
            "count" : 144,
            "type" : "VEC3"
        },
        {
            "bufferView" : 2,
            "componentType" : 5126,
            "count" : 144,
            "type" : "VEC2"
        },
        {
            "bufferView" : 3,
            "componentType" : 5123,
            "count" : 510,
            "type" : "SCALAR"
        }
    ],
    "bufferViews" : [
        {
            "buffer" : 0,
            "byteLength" : 1728,
            "byteOffset" : 0
        },
        {
            "buffer" : 0,
            "byteLength" : 1728,
            "byteOffset" : 1728
        },
        {
            "buffer" : 0,
            "byteLength" : 1152,
            "byteOffset" : 3456
        },
        {
            "buffer" : 0,
            "byteLength" : 1020,
            "byteOffset" : 4608
        }
    ],
    "buffers" : [
        {
            "byteLength" : 5628,
            "uri" : "ph_rcs.sturdy.bin"
        }
    ]
}
