{
    "asset" : {
        "generator" : "Khronos glTF Blender I/O v1.3.48",
        "version" : "2.0"
    },
    "scene" : 0,
    "scenes" : [
        {
            "name" : "Scene",
            "nodes" : [
                3
            ]
        }
    ],
    "nodes" : [
        {
            "name" : "fx_plume_phRCSplume",
            "rotation" : [
                0,
                1,
                0,
                -1.6292068494294654e-07
            ],
            "translation" : [
                0,
                0,
                0.1351655125617981
            ]
        },
        {
            "mesh" : 0,
            "name" : "linrcsblk",
            "rotation" : [
                0,
                -0.7071068286895752,
                0,
                0.7071068286895752
            ]
        },
        {
            "mesh" : 1,
            "name" : "linrcsnozzle",
            "translation" : [
                0,
                0,
                0.1476498246192932
            ]
        },
        {
            "children" : [
                0,
                1,
                2
            ],
            "extras" : {
                "country" : "Placeholderland",
                "description" : "A placeholder linear RCS block",
                "manufacturer" : "ACME Placeholders",
                "machines" : [
                    {
                        "type" : "RCSController"
                    },
                    {
                        "type" : "Rocket"
                    },
                    {
                        "type" : "FreeEnergyGenerator"
                    }
                ],
                "massdry" : 10,
                "name" : "Mk. 0 Placeholder RCS Thruster"
            },
            "name" : "part_phLinRCS"
        }
    ],
    "materials" : [
        {
            "doubleSided" : true,
            "emissiveFactor" : [
                0,
                0,
                0
            ],
            "name" : "Material",
            "pbrMetallicRoughness" : {
                "baseColorTexture" : {
                    "index" : 0,
                    "texCoord" : 0
                },
                "metallicFactor" : 0,
                "roughnessFactor" : 0.4000000059604645
            }
        }
    ],
    "meshes" : [
        {
            "name" : "Cube",
            "primitives" : [
                {
                    "attributes" : {
                        "POSITION" : 0,
                        "NORMAL" : 1,
                        "TEXCOORD_0" : 2
                    },
                    "indices" : 3,
                    "material" : 0
                }
            ]
        },
        {
            "name" : "Cylinder.004",
            "primitives" : [
                {
                    "attributes" : {
                        "POSITION" : 4,
                        "NORMAL" : 5,
                        "TEXCOORD_0" : 6
                    },
                    "indices" : 7,
                    "material" : 0
                }
            ]
        }
    ],
    "textures" : [
        {
            "source" : 0
        }
    ],
    "images" : [
        {
            "mimeType" : "image/png",
            "name" : "ph_base",
            "uri" : "ph_base.png"
        }
    ],
    "accessors" : [
        {
            "bufferView" : 0,
            "componentType" : 5126,
            "count" : 32,
            "max" : [
                0.04291259124875069,
                0.10176695883274078,
                0.10176695883274078
            ],
            "min" : [
                -0.05941193550825119,
                -0.10176695883274078,
                -0.10176695883274078
            ],
            "type" : "VEC3"
        },
        {
            "bufferView" : 1,
            "componentType" : 5126,
            "count" : 32,
            "type" : "VEC3"
        },
        {
            "bufferView" : 2,
            "componentType" : 5126,
            "count" : 32,
            "type" : "VEC2"
        },
        {
            "bufferView" : 3,
            "componentType" : 5123,
            "count" : 48,
            "type" : "SCALAR"
        },
        {
            "bufferView" : 4,
            "componentType" : 5126,
            "count" : 120,
            "max" : [
                0.06034967675805092,
                0.06034954637289047,
                -0.012484176084399223
            ],
            "min" : [
                -0.060349687933921814,
                -0.06034979596734047,
                -0.14050965011119843
            ],
            "type" : "VEC3"
        },
        {
            "bufferView" : 5,
            "componentType" : 5126,
            "count" : 120,
            "type" : "VEC3"
        },
        {
            "bufferView" : 6,
            "componentType" : 5126,
            "count" : 120,
            "type" : "VEC2"
        },
        {
            "bufferView" : 7,
            "componentType" : 5123,
            "count" : 462,
            "type" : "SCALAR"
        }
    ],
    "bufferViews" : [
        {
            "buffer" : 0,
            "byteLength" : 384,
            "byteOffset" : 0
        },
        {
            "buffer" : 0,
            "byteLength" : 384,
            "byteOffset" : 384
        },
        {
            "buffer" : 0,
            "byteLength" : 256,
            "byteOffset" : 768
        },
        {
            "buffer" : 0,
            "byteLength" : 96,
            "byteOffset" : 1024
        },
        {
            "buffer" : 0,
            "byteLength" : 1440,
            "byteOffset" : 1120
        },
        {
            "buffer" : 0,
            "byteLength" : 1440,
            "byteOffset" : 2560
        },
        {
            "buffer" : 0,
            "byteLength" : 960,
            "byteOffset" : 4000
        },
        {
            "buffer" : 0,
            "byteLength" : 924,
            "byteOffset" : 4960
        }
    ],
    "buffers" : [
        {
            "byteLength" : 5884,
            "uri" : "ph_rcs.sturdy.bin"
        }
    ]
}
