{
	"asset":{
		"generator":"Khronos glTF Blender I/O v4.5.49",
		"version":"2.0"
	},
	"scene":0,
	"scenes":[
		{
			"name":"Scene",
			"nodes":[
				5
			]
		}
	],
	"nodes":[
		{
			"extras":{
				"shape":"cube",
				"massdry":1000.0
			},
			"name":"col_fusalage",
			"scale":[
				0.886086642742157,
				2.495450973510742,
				6.2181172370910645
			],
			"translation":[
				0,
				0.0039101243019104,
				0.9583339095115662
			]
		},
		{
			"extras":{
				"shape":"cube",
				"massdry":1000.0
			},
			"name":"col_left",
			"rotation":[
				0.017452405765652657,
				0,
				0,
				0.9998477101325989
			],
			"scale":[
				0.6479361057281494,
				2.646085262298584,
				2.323085308074951
			],
			"translation":[
				5.002408027648926,
				0.1590890884399414,
				-3.7140254974365234
			]
		},
		{
			"extras":{
				"shape":"cube",
				"massdry":1000.0
			},
			"name":"col_right",
			"rotation":[
				0.017452405765652657,
				0,
				0,
				0.9998477101325989
			],
			"scale":[
				0.6479361057281494,
				2.646085262298584,
				2.323085308074951
			],
			"translation":[
				-5.002409934997559,
				0.1590890884399414,
				-3.7140254974365234
			]
		},
		{
			"extras":{
				"shape":"cube",
				"massdry":1000.0
			},
			"name":"col_wings",
			"scale":[
				4.787597179412842,
				0.3123275935649872,
				3.603761672973633
			],
			"translation":[
				0,
				0.0039101243019104,
				-2.002084732055664
			]
		},
		{
			"mesh":0,
			"name":"solvalot"
		},
		{
			"children":[
				0,
				1,
				2,
				3,
				4
			],
			"extras":{
				"massdry":10.0
			},
			"name":"part_solvalot1"
		}
	],
	"materials":[
		{
			"doubleSided":true,
			"name":"solvalot-material",
			"pbrMetallicRoughness":{
				"baseColorTexture":{
					"index":0
				},
				"metallicFactor":0,
				"roughnessFactor":0.5
			}
		}
	],
	"meshes":[
		{
			"name":"Cube",
			"primitives":[
				{
					"attributes":{
						"POSITION":0,
						"NORMAL":1,
						"TEXCOORD_0":2
					},
					"indices":3,
					"material":0
				}
			]
		}
	],
	"textures":[
		{
			"sampler":0,
			"source":0
		}
	],
	"images":[
		{
			"mimeType":"image/png",
			"name":"solvalot",
			"uri":"solvalot.png"
		}
	],
	"accessors":[
		{
			"bufferView":0,
			"componentType":5126,
			"count":1335,
			"max":[
				5.2794013023376465,
				2.8245668411254883,
				7.075264930725098
			],
			"min":[
				-5.2794013023376465,
				-2.377899408340454,
				-6.056069374084473
			],
			"type":"VEC3"
		},
		{
			"bufferView":1,
			"componentType":5126,
			"count":1335,
			"type":"VEC3"
		},
		{
			"bufferView":2,
			"componentType":5126,
			"count":1335,
			"type":"VEC2"
		},
		{
			"bufferView":3,
			"componentType":5123,
			"count":2364,
			"type":"SCALAR"
		}
	],
	"bufferViews":[
		{
			"buffer":0,
			"byteLength":16020,
			"byteOffset":0,
			"target":34962
		},
		{
			"buffer":0,
			"byteLength":16020,
			"byteOffset":16020,
			"target":34962
		},
		{
			"buffer":0,
			"byteLength":10680,
			"byteOffset":32040,
			"target":34962
		},
		{
			"buffer":0,
			"byteLength":4728,
			"byteOffset":42720,
			"target":34963
		}
	],
	"samplers":[
		{
			"magFilter":9729,
			"minFilter":9987
		}
	],
	"buffers":[
		{
			"byteLength":47448,
			"uri":"solvalot.sturdy.bin"
		}
	]
}
